<svg width="331.92877197265625px" height="111.183740234375px" xmlns="http://www.w3.org/2000/svg" viewBox="84.03561401367188 19.408129882812503 331.92877197265625 111.183740234375" style="background: rgba(0, 0, 0, 0);" preserveAspectRatio="xMidYMid"><defs><filter id="editing-offset"><feFlood flood-color="rgba(0%,0%,0%,0)" flood-opacity="0.5" result="c1"></feFlood><feFlood flood-color="#00ff00" flood-opacity="0.5" result="c2"></feFlood><feFlood flood-color="#0000ff" flood-opacity="0.5" result="c3"></feFlood><feComposite operator="in" in="c1" in2="SourceAlpha" result="text-c1"></feComposite><feComposite operator="in" in="c2" in2="SourceAlpha" result="text-c2"></feComposite><feComposite operator="in" in="c3" in2="SourceAlpha" result="text-c3"></feComposite><feOffset in="text-c1" dx="-10" dy="0" result="text1"></feOffset><feOffset in="text-c2" dx="10" dy="0" result="text2"></feOffset><feOffset in="text-c3" dx="0" dy="0" result="text3"></feOffset><feMerge><feMergeNode in="text1"></feMergeNode><feMergeNode in="text2"></feMergeNode><feMergeNode in="text3"></feMergeNode></feMerge></filter></defs><g filter="url(#editing-offset)"><g transform="translate(134.8521917462349, 96.3359375)"><path d="M18.92-30.21L18.92-30.21L18.92-30.21Q20.98-30.21 22.57-29.75L22.57-29.75L22.57-29.75Q22.63-29.98 22.74-30.61L22.74-30.61L23.03-32.38L23.03-32.38Q23.26-33.52 23.60-35.40L23.60-35.40L24.51-39.90L35.85-41.04L29.53-7.98L29.53-7.98Q29.47-7.64 29.47-7.07L29.47-7.07L29.47-6.16L29.47-6.16Q29.47-4.90 30.10-3.96L30.10-3.96L30.10-3.96Q30.72-3.02 31.75-3.02L31.75-3.02L31.75-3.02Q30.61-0.34 27.13 0.80L27.13 0.80L27.13 0.80Q25.94 1.14 24.25 1.14L24.25 1.14L24.25 1.14Q22.57 1.14 21.03 0.26L21.03 0.26L21.03 0.26Q19.49-0.63 19.04-2.11L19.04-2.11L19.04-2.11Q18.13-0.63 16.30 0.26L16.30 0.26L16.30 0.26Q14.48 1.14 11.83 1.14L11.83 1.14L11.83 1.14Q9.18 1.14 6.98 0.46L6.98 0.46L6.98 0.46Q4.79-0.23 3.42-1.71L3.42-1.71L3.42-1.71Q0.91-4.62 0.91-11.23L0.91-11.23L0.91-11.23Q0.91-19.78 5.93-24.97L5.93-24.97L5.93-24.97Q10.94-30.21 18.92-30.21ZM18.53-26.79L18.53-26.79L18.53-26.79Q16.42-26.79 15.28-24.51L15.28-24.51L15.28-24.51Q14.14-22.23 12.97-16.59L12.97-16.59L12.97-16.59Q11.80-10.94 11.80-5.87L11.80-5.87L11.80-5.87Q11.80-2.39 13.85-2.39L13.85-2.39L13.85-2.39Q15.68-2.39 16.96-4.22L16.96-4.22L16.96-4.22Q18.24-6.04 18.75-9.06L18.75-9.06L21.83-25.76L21.83-25.76Q20.63-26.79 18.53-26.79ZM54.89-2.39L54.89-2.39L54.89-2.39Q52.16 1.14 45.37 1.14L45.37 1.14L45.37 1.14Q41.84 1.14 39.27-1.00L39.27-1.00L39.27-1.00Q36.71-3.14 36.71-6.21L36.71-6.21L36.71-6.21Q36.71-7.92 36.88-8.78L36.88-8.78L40.70-29.07L52.27-30.21L48.11-8.21L48.11-8.21Q47.88-6.95 47.88-6.21L47.88-6.21L47.88-6.21Q47.88-2.91 49.88-2.91L49.88-2.91L49.88-2.91Q52.10-2.91 53.69-5.93L53.69-5.93L53.69-5.93Q54.21-6.90 54.44-8.15L54.44-8.15L58.48-29.07L69.71-30.21L65.49-7.98L65.49-7.98Q65.32-7.13 65.32-6.21L65.32-6.21L65.32-6.21Q65.32-5.30 65.84-4.30L65.84-4.30L65.84-4.30Q66.35-3.31 68.00-3.08L68.00-3.08L68.00-3.08Q67.66-1.71 66.46-0.80L66.46-0.80L66.46-0.80Q63.95 1.14 61.25 1.14L61.25 1.14L61.25 1.14Q58.54 1.14 56.94 0.17L56.94 0.17L56.94 0.17Q55.35-0.80 54.89-2.39ZM72.05-2.74L72.05-2.74L79.12-39.90L90.69-41.04L88.92-32.32L88.92-32.32Q88.29-29.64 87.49-27.76L87.49-27.76L87.49-27.76Q88.75-29.36 91.48-29.98L91.48-29.98L91.48-29.98Q92.28-30.21 93.25-30.21L93.25-30.21L93.25-30.21Q98.55-30.21 101.46-26.99L101.46-26.99L101.46-26.99Q104.37-23.77 104.37-17.56L104.37-17.56L104.37-17.56Q104.37-9.46 99.75-4.39L99.75-4.39L99.75-4.39Q94.79 1.14 85.78 1.14L85.78 1.14L85.78 1.14Q79.57 1.14 74.90-0.91L74.90-0.91L74.90-0.91Q73.24-1.65 72.05-2.74ZM86.53-19.95L83.50-3.25L83.50-3.25Q84.70-2.22 86.18-2.22L86.18-2.22L86.18-2.22Q87.67-2.22 88.52-2.79L88.52-2.79L88.52-2.79Q89.38-3.36 90.00-4.50L90.00-4.50L90.00-4.50Q91.71-7.58 93.08-16.99L93.08-16.99L93.08-16.99Q93.48-19.66 93.48-22.34L93.48-22.34L93.48-22.34Q93.48-25.02 92.88-25.88L92.88-25.88L92.88-25.88Q92.28-26.73 91.14-26.73L91.14-26.73L91.14-26.73Q87.67-26.73 86.53-19.95L86.53-19.95ZM120.21 1.14L120.21 1.14L120.21 1.14Q107.67 1.14 107.67-10.66L107.67-10.66L107.67-10.66Q107.67-19.04 112.29-24.45L112.29-24.45L112.29-24.45Q117.19-30.21 125.69-30.21L125.69-30.21L125.69-30.21Q131.84-30.21 134.98-27.36L134.98-27.36L134.98-27.36Q138.11-24.51 138.11-18.53L138.11-18.53L138.11-18.53Q138.11-9.41 133.21-4.10L133.21-4.10L133.21-4.10Q128.42 1.14 120.21 1.14ZM121.69-23.66L121.69-23.66L121.69-23.66Q121.01-22.12 120.47-19.81L120.47-19.81L120.47-19.81Q119.93-17.50 119.24-13.85L119.24-13.85L119.24-13.85Q118.56-10.20 118.56-5.70L118.56-5.70L118.56-5.70Q118.56-4.22 119.04-3.25L119.04-3.25L119.04-3.25Q119.53-2.28 120.84-2.28L120.84-2.28L120.84-2.28Q122.15-2.28 122.98-2.91L122.98-2.91L122.98-2.91Q123.80-3.53 124.43-5.02L124.43-5.02L124.43-5.02Q125.57-7.64 126.48-12.51L126.48-12.51L126.48-12.51Q127.39-17.39 127.48-19.49L127.48-19.49L127.48-19.49Q127.57-21.60 127.57-23.17L127.57-23.17L127.57-23.17Q127.57-24.74 127.11-25.76L127.11-25.76L127.11-25.76Q126.65-26.79 125.37-26.79L125.37-26.79L125.37-26.79Q124.09-26.79 123.23-25.99L123.23-25.99L123.23-25.99Q122.38-25.19 121.69-23.66ZM143.58-9.23L143.58-9.23L143.58-9.23Q141.76-10.54 141.76-13.05L141.76-13.05L141.76-13.05Q141.76-14.42 142.44-15.53L142.44-15.53L142.44-15.53Q143.13-16.64 144.50-16.82L144.50-16.82L155.72-16.82L155.72-16.82Q157.60-16.82 158.18-17.96L158.18-17.96L158.18-17.96Q159.09-17.44 159.49-16.36L159.49-16.36L159.49-16.36Q159.88-15.28 159.88-14.14L159.88-14.14L159.88-14.14Q159.88-13.00 159.00-11.88L159.00-11.88L159.00-11.88Q158.12-10.77 156.81-10.66L156.81-10.66L146.38-10.66L146.38-10.66Q145.18-10.66 144.61-10.29L144.61-10.29L144.61-10.29Q144.04-9.92 143.58-9.23ZM191.80-23.71L191.80-23.71L191.80-23.71Q191.80-21.32 189.81-19.84L189.81-19.84L189.81-19.84Q187.81-18.35 184.57-18.35L184.57-18.35L184.57-18.35Q183.20-18.35 182.40-18.75L182.40-18.75L182.40-18.75Q183.03-20.23 183.23-22.09L183.23-22.09L183.23-22.09Q183.43-23.94 183.43-24.45L183.43-24.45L183.43-24.45Q183.43-26.85 181.77-26.85L181.77-26.85L181.77-26.85Q180.63-26.85 179.35-25.42L179.35-25.42L179.35-25.42Q178.07-24.00 176.98-21.77L176.98-21.77L176.98-21.77Q174.59-16.64 174.59-11.46L174.59-11.46L174.59-11.46Q174.59-8.61 175.67-7.32L175.67-7.32L175.67-7.32Q176.76-6.04 179.15-6.04L179.15-6.04L179.15-6.04Q182.46-6.04 185.08-8.78L185.08-8.78L185.08-8.78Q185.82-9.63 186.22-10.60L186.22-10.60L186.22-10.60Q188.38-9.46 188.38-6.33L188.38-6.33L188.38-6.33Q188.38-3.14 184.85-1.03L184.85-1.03L184.85-1.03Q181.20 1.14 175.39 1.14L175.39 1.14L175.39 1.14Q163.82 1.14 163.82-11.12L163.82-11.12L163.82-11.12Q163.82-20.06 168.89-25.19L168.89-25.19L168.89-25.19Q173.79-30.21 182.80-30.21L182.80-30.21L182.80-30.21Q191.80-30.21 191.80-23.71ZM206.97-3.14L206.97-3.14L206.97-3.14Q205.20 1.14 199.56 1.14L199.56 1.14L199.56 1.14Q196.71 1.14 194.88-0.85L194.88-0.85L194.88-0.85Q193.40-2.51 193.40-4.39L193.40-4.39L193.40-4.39Q193.40-8.66 195.40-18.01L195.40-18.01L199.56-39.90L211.13-41.04L205.60-12.20L205.60-12.20Q204.63-7.98 204.63-6.50L204.63-6.50L204.63-6.50Q204.63-3.25 206.97-3.14ZM225.49-3.14L225.49-3.14L225.49-3.14Q223.72 1.14 218.08 1.14L218.08 1.14L218.08 1.14Q215.17 1.14 213.35-0.85L213.35-0.85L213.35-0.85Q211.81-2.62 211.81-4.39L211.81-4.39L211.81-4.39Q211.81-9.01 213.92-18.01L213.92-18.01L216.03-29.07L227.60-30.21L224.12-12.20L224.12-12.20Q223.16-7.98 223.16-6.50L223.16-6.50L223.16-6.50Q223.16-3.25 225.49-3.14ZM217.06-36.99L217.06-36.99L217.06-36.99Q217.06-39.22 218.91-40.41L218.91-40.41L218.91-40.41Q220.76-41.61 223.44-41.61L223.44-41.61L223.44-41.61Q226.12-41.61 227.74-40.41L227.74-40.41L227.74-40.41Q229.37-39.22 229.37-36.99L229.37-36.99L229.37-36.99Q229.37-34.77 227.57-33.63L227.57-33.63L227.57-33.63Q225.78-32.49 223.10-32.49L223.10-32.49L223.10-32.49Q220.42-32.49 218.74-33.63L218.74-33.63L218.74-33.63Q217.06-34.77 217.06-36.99Z"></path></g></g><style>text {
  font-size: 64px;
  font-family: Arial Black;
  dominant-baseline: central;
  text-anchor: middle;
}</style></svg>