<svg width="531.445068359375px" height="190.3824951171875px" xmlns="http://www.w3.org/2000/svg" viewBox="-15.7225341796875 -20.191247558593744 531.445068359375 190.3824951171875" style="background: rgba(0, 0, 0, 0);" preserveAspectRatio="xMidYMid"><defs><filter id="editing-offset"><feFlood flood-color="rgba(0%,0%,0%,0)" flood-opacity="0.5" result="c1"></feFlood><feFlood flood-color="#00ff00" flood-opacity="0.5" result="c2"></feFlood><feFlood flood-color="#0000ff" flood-opacity="0.5" result="c3"></feFlood><feComposite operator="in" in="c1" in2="SourceAlpha" result="text-c1"></feComposite><feComposite operator="in" in="c2" in2="SourceAlpha" result="text-c2"></feComposite><feComposite operator="in" in="c3" in2="SourceAlpha" result="text-c3"></feComposite><feOffset in="text-c1" dx="-10" dy="0" result="text1"></feOffset><feOffset in="text-c2" dx="10" dy="0" result="text2"></feOffset><feOffset in="text-c3" dx="0" dy="0" result="text3"></feOffset><feMerge><feMergeNode in="text1"></feMergeNode><feMergeNode in="text2"></feMergeNode><feMergeNode in="text3"></feMergeNode></feMerge></filter></defs><g filter="url(#editing-offset)"><g transform="translate(60.974377393722534, 116.84250259399414)"><path d="M54.59-19.53L58.89-13.62L58.89-13.62Q56.15-7.13 52.64-3.08L52.64-3.08L52.64-3.08Q49.12 0.98 45.12 0.98L45.12 0.98L45.12 0.98Q42.87 0.98 40.26-0.39L40.26-0.39L40.26-0.39Q37.65-1.76 35.60-3.91L35.60-3.91L35.60-3.91Q35.45-4.05 34.67-4.86L34.67-4.86L34.67-4.86Q33.89-5.66 33.45-6.84L33.45-6.84L33.45-6.84Q33.01-8.01 33.01-9.57L33.01-9.57L33.01-9.57Q33.01-10.35 33.06-10.79L33.06-10.79L33.06-10.79Q33.25-12.99 33.84-22.27L33.84-22.27L33.98-24.17L33.74-24.27L33.74-24.27Q31.05-17.14 27.54-10.01L27.54-10.01L27.54-10.01Q24.02-2.88 20.95-0.24L20.95-0.24L20.95-0.24Q19.53 0.98 18.07 0.98L18.07 0.98L18.07 0.98Q16.94 0.98 15.80 0.37L15.80 0.37L15.80 0.37Q14.65-0.24 12.84-1.51L12.84-1.51L12.84-1.51Q12.01-2.10 10.69-2.83L10.69-2.83L10.69-2.83Q8.59-4.00 7.50-4.96L7.50-4.96L7.50-4.96Q6.40-5.91 6.35-7.18L6.35-7.18L6.30-11.23L6.30-11.23Q6.20-18.31 5.98-22.97L5.98-22.97L5.98-22.97Q5.76-27.64 5.03-33.08L5.03-33.08L5.03-33.08Q4.30-38.53 2.78-43.70L2.78-43.70L2.78-43.70Q2.20-45.70 2.20-46.39L2.20-46.39L2.20-46.39Q2.20-46.97 2.47-47.56L2.47-47.56L2.47-47.56Q2.73-48.14 3.42-49.07L3.42-49.07L3.42-49.07Q6.05-52.54 9.67-54.66L9.67-54.66L9.67-54.66Q13.28-56.79 16.26-57.67L16.26-57.67L16.26-57.67Q19.24-58.54 21.04-58.79L21.04-58.79L21.04-58.79Q24.51-56.40 27.08-53.00L27.08-53.00L27.08-53.00Q29.64-49.61 32.81-44.34L32.81-44.34L33.06-44.43L33.06-44.43Q32.62-50 31.47-58.81L31.47-58.81L31.47-58.81Q30.32-67.63 30.13-69.19L30.13-69.19L30.13-69.19Q29.35-75.15 29.25-76.12L29.25-76.12L29.25-76.12Q30.13-77.20 32.93-77.98L32.93-77.98L32.93-77.98Q35.74-78.76 39.16-78.76L39.16-78.76L39.16-78.76Q42.87-78.76 46.29-77.71L46.29-77.71L46.29-77.71Q49.71-76.66 52.15-74.41L52.15-74.41L52.15-74.41Q52.20-74.17 52.20-72.80L52.20-72.80L52.20-72.80Q52.20-67.72 51.44-56.01L51.44-56.01L51.44-56.01Q50.68-44.29 49.34-32.62L49.34-32.62L49.34-32.62Q48.00-20.95 46.24-15.04L46.24-15.04L54.59-19.53ZM22.46-16.55L22.46-16.55Q24.80-18.90 27.95-24.44L27.95-24.44L27.95-24.44Q31.10-29.98 32.91-33.89L32.91-33.89L33.01-35.06L32.96-37.79L32.96-37.79Q31.05-38.28 26.71-39.16L26.71-39.16L22.66-40.04L22.75-34.81L22.75-34.81Q22.90-26.76 21.00-17.24L21.00-17.24L22.46-16.55ZM81.54-45.46L81.54-45.46Q81.54-37.79 80.98-31.23L80.98-31.23L80.98-31.23Q80.42-24.66 79.05-18.31L79.05-18.31L80.52-17.63L80.52-17.63Q82.23-19.29 84.45-23.19L84.45-23.19L84.45-23.19Q86.67-27.10 88.53-31.23L88.53-31.23L88.53-31.23Q90.38-35.35 90.92-37.30L90.92-37.30L90.92-37.30Q89.50-54.20 89.50-56.35L89.50-56.35L89.50-56.35Q90.33-56.88 92.68-57.30L92.68-57.30L92.68-57.30Q95.02-57.71 97.71-57.71L97.71-57.71L97.71-57.71Q102.15-57.71 105.40-56.30L105.40-56.30L105.40-56.30Q108.64-54.88 111.23-51.81L111.23-51.81L111.23-51.27L111.23-51.27Q111.23-48.83 110.03-41.99L110.03-41.99L110.03-41.99Q108.84-35.16 106.88-27.61L106.88-27.61L106.88-27.61Q104.93-20.07 102.83-15.04L102.83-15.04L111.28-19.53L115.43-13.62L115.43-13.62Q112.65-7.18 109.06-3.10L109.06-3.10L109.06-3.10Q105.47 0.98 101.51 0.98L101.51 0.98L101.51 0.98Q99.22 0.98 96.61-0.37L96.61-0.37L96.61-0.37Q93.99-1.71 91.99-3.91L91.99-3.91L91.99-3.91Q91.80-4.10 91.04-4.88L91.04-4.88L91.04-4.88Q90.28-5.66 89.87-6.79L89.87-6.79L89.87-6.79Q89.45-7.91 89.45-9.42L89.45-9.42L89.45-9.42Q89.45-9.81 89.55-10.79L89.55-10.79L89.55-10.79Q90.23-17.58 91.21-23.93L91.21-23.93L90.48-24.27L90.48-24.27Q86.77-14.84 82.40-6.93L82.40-6.93L82.40-6.93Q78.03 0.98 74.56 0.98L74.56 0.98L74.56 0.98Q73.34 0.98 72.14 0.37L72.14 0.37L72.14 0.37Q70.95-0.24 69.19-1.51L69.19-1.51L67.48-2.64L67.48-2.64Q64.99-4.25 63.70-5.40L63.70-5.40L63.70-5.40Q62.40-6.54 62.40-7.91L62.40-7.91L66.50-27.98L58.94-49.02L58.94-49.02Q60.21-52.15 63.04-54.20L63.04-54.20L63.04-54.20Q65.87-56.25 69.29-57.20L69.29-57.20L69.29-57.20Q72.71-58.15 75.98-58.15L75.98-58.15L75.98-58.15Q79.30-58.15 81.05-57.32L81.05-57.32L81.05-57.32Q81.54-52.15 81.54-45.46L81.54-45.46ZM152.00-57.71L152.00-57.71Q154.05-57.71 157.06-56.93L157.06-56.93L157.06-56.93Q160.06-56.15 163.33-54.57L163.33-54.57L163.33-54.57Q166.60-52.98 169.34-50.68L169.34-50.68L169.34-50.68Q169.19-43.41 167.77-34.03L167.77-34.03L167.77-34.03Q166.36-24.66 164.28-15.82L164.28-15.82L164.28-15.82Q162.21-6.98 160.11-1.12L160.11-1.12L160.11-1.12Q158.54 0 154.96 0.49L154.96 0.49L154.96 0.49Q151.37 0.98 147.71 0.98L147.71 0.98L147.71 0.98Q141.70 0.98 134.81-0.22L134.81-0.22L134.81-0.22Q127.93-1.42 123.58-3.76L123.58-3.76L123.58-3.76Q122.46-4.35 122.05-4.79L122.05-4.79L122.05-4.79Q121.63-5.22 121.63-6.10L121.63-6.10L121.63-6.10Q121.63-6.79 121.92-7.96L121.92-7.96L123.63-14.99L124.41-17.97L124.32-17.97L124.37-18.07L124.37-18.07Q123.19-20.61 121.66-31.86L121.66-31.86L121.66-31.86Q120.12-43.12 118.92-55.44L118.92-55.44L118.92-55.44Q117.72-67.77 117.72-70.95L117.72-70.95L117.72-70.95Q117.72-71.48 117.77-71.58L117.77-71.58L117.77-71.58Q120.26-74.66 124.73-76.71L124.73-76.71L124.73-76.71Q129.20-78.76 133.54-78.76L133.54-78.76L133.54-78.76Q138.13-78.76 140.97-76.46L140.97-76.46L140.97-76.46Q140.53-68.41 139.58-60.03L139.58-60.03L139.58-60.03Q138.62-51.66 136.96-39.36L136.96-39.36L136.96-39.36Q136.33-34.72 135.16-25.44L135.16-25.44L135.64-25.24L146.48-56.88L146.48-56.88Q147.90-57.28 149.00-57.50L149.00-57.50L149.00-57.50Q150.10-57.71 152.00-57.71L152.00-57.71ZM148.19-10.50L148.19-10.50Q148.83-16.60 149.49-25.12L149.49-25.12L149.49-25.12Q150.15-33.64 150.20-37.94L150.20-37.94L148.88-38.33L148.88-38.33Q146.53-33.54 142.68-25.39L142.68-25.39L142.68-25.39Q138.82-17.24 137.74-14.65L137.74-14.65L137.74-14.65Q139.55-13.09 142.90-11.87L142.90-11.87L142.90-11.87Q146.24-10.64 148.19-10.50L148.19-10.50ZM220.26-48.19L220.26-48.19Q220.70-46.04 220.87-43.68L220.87-43.68L220.87-43.68Q221.04-41.31 221.04-37.06L221.04-37.06L221.04-37.06Q221.04-30.22 219.85-21.51L219.85-21.51L219.85-21.51Q218.65-12.79 217.29-7.81L217.29-7.81L217.29-7.81Q216.46-6.79 214.06-5.27L214.06-5.27L214.06-5.27Q211.67-3.76 209.28-2.54L209.28-2.54L209.28-2.54Q206.05-0.93 203.71-0.10L203.71-0.10L203.71-0.10Q201.37 0.73 199.02 0.98L199.02 0.98L199.02 0.98Q195.70 0.68 191.21-0.49L191.21-0.49L191.21-0.49Q186.72-1.66 182.84-3.30L182.84-3.30L182.84-3.30Q178.96-4.93 177.25-6.64L177.25-6.64L177.25-6.64Q175.73-16.31 174.93-23.34L174.93-23.34L174.93-23.34Q174.12-30.37 174.12-37.01L174.12-37.01L174.12-37.01Q174.12-43.12 175-49.12L175-49.12L175-49.12Q176.37-50.83 180.57-52.95L180.57-52.95L180.57-52.95Q184.77-55.08 189.50-56.76L189.50-56.76L189.50-56.76Q194.24-58.45 196.78-58.79L196.78-58.79L196.78-58.79Q200.83-58.40 205.52-56.84L205.52-56.84L205.52-56.84Q210.21-55.27 214.18-52.98L214.18-52.98L214.18-52.98Q218.16-50.68 220.26-48.19L220.26-48.19ZM191.89-40.72L191.89-40.72Q191.31-34.86 191.31-28.96L191.31-28.96L191.31-28.96Q191.31-21.14 191.99-14.26L191.99-14.26L191.99-14.26Q196.00-11.62 200.10-10.74L200.10-10.74L202.78-12.60L202.78-12.60Q203.17-16.65 203.17-23.44L203.17-23.44L203.17-23.44Q203.17-31.10 202.34-39.06L202.34-39.06L194.82-42.14L191.89-40.72ZM232.13-33.64L266.02-36.04L266.02-36.04Q266.36-34.67 266.36-33.01L266.36-33.01L266.36-33.01Q266.36-27.83 262.70-20.65L262.70-20.65L262.70-20.65Q261.04-20.51 257.96-20.51L257.96-20.51L257.96-20.51Q254.10-20.51 246.41-20.75L246.41-20.75L246.41-20.75Q238.72-21.00 229.39-21.34L229.39-21.34L229.39-21.34Q229.25-22.80 229.25-24.12L229.25-24.12L229.25-24.12Q229.25-26.86 229.93-28.98L229.93-28.98L229.93-28.98Q230.62-31.10 232.13-33.64L232.13-33.64ZM274.17-42.43L274.17-42.43Q274.12-42.68 273.75-43.75L273.75-43.75L273.75-43.75Q273.39-44.82 273.39-45.41L273.39-45.41L273.39-45.41Q273.39-47.27 276.39-49.98L276.39-49.98L276.39-49.98Q279.39-52.69 282.13-54.30L282.13-54.30L282.13-54.30Q284.67-55.81 288.16-57.30L288.16-57.30L288.16-57.30Q291.65-58.79 293.70-58.79L293.70-58.79L293.70-58.79Q295.12-58.79 297.22-57.89L297.22-57.89L297.22-57.89Q299.32-56.98 302.59-55.27L302.59-55.27L304.93-54.05L314.01-51.71L314.01-51.71Q314.26-49.90 314.26-48.58L314.26-48.58L314.26-48.58Q314.26-44.14 312.57-40.23L312.57-40.23L312.57-40.23Q310.89-36.33 308.69-33.81L308.69-33.81L308.69-33.81Q306.49-31.30 305.18-30.91L305.18-30.91L305.18-30.91Q302.34-32.57 300.12-35.11L300.12-35.11L300.12-35.11Q297.90-37.65 295.12-41.50L295.12-41.50L293.75-43.41L293.75-43.41Q294.19-39.75 294.19-34.28L294.19-34.28L294.19-34.28Q294.19-29.10 293.75-23.88L293.75-23.88L293.75-23.88Q293.31-18.65 292.48-14.65L292.48-14.65L293.41-13.87L293.41-13.87Q295.17-14.60 300-17.02L300-17.02L300-17.02Q304.83-19.43 308.94-21.63L308.94-21.63L313.87-14.16L313.87-14.16Q312.65-11.87 308.72-8.20L308.72-8.20L308.72-8.20Q304.79-4.54 300.15-1.78L300.15-1.78L300.15-1.78Q295.51 0.98 291.99 0.98L291.99 0.98L291.99 0.98Q290.09 0.98 287.50-0.44L287.50-0.44L287.50-0.44Q284.91-1.86 283.28-3.10L283.28-3.10L283.28-3.10Q281.64-4.35 279.35-6.20L279.35-6.20L279.35-6.20Q277.78-7.57 277.22-8.50L277.22-8.50L277.22-8.50Q276.66-9.42 276.66-10.50L276.66-10.50L276.66-10.50Q276.66-10.99 276.71-11.43L276.71-11.43L276.71-11.43Q276.76-11.87 276.81-12.21L276.81-12.21L276.81-12.21Q277.10-13.96 277.10-15.58L277.10-15.58L277.10-15.58Q277.10-22.90 276.32-30.69L276.32-30.69L276.32-30.69Q275.54-38.48 274.17-42.43L274.17-42.43ZM320.36-6.74L320.36-6.74Q319.68-7.52 319.31-8.37L319.31-8.37L319.31-8.37Q318.95-9.23 318.95-10.45L318.95-10.45L318.95-10.45Q318.95-10.89 319.14-12.16L319.14-12.16L322.51-29.59L322.51-29.59Q321.14-36.67 319.85-46.17L319.85-46.17L319.85-46.17Q318.55-55.66 317.72-63.26L317.72-63.26L317.72-63.26Q316.89-70.85 317.04-71.58L317.04-71.58L317.04-71.58Q319.43-74.61 323.85-76.68L323.85-76.68L323.85-76.68Q328.27-78.76 332.62-78.76L332.62-78.76L332.62-78.76Q337.11-78.76 339.89-76.46L339.89-76.46L339.89-76.46Q339.50-65.04 338.45-51.42L338.45-51.42L338.45-51.42Q337.40-37.79 335.21-15.33L335.21-15.33L342.19-18.60L346.09-12.40L346.09-12.40Q345.12-9.38 343.02-6.27L343.02-6.27L343.02-6.27Q340.92-3.17 338.13-1.10L338.13-1.10L338.13-1.10Q335.35 0.98 332.47 0.98L332.47 0.98L332.47 0.98Q329.44 0.98 326.22-1.32L326.22-1.32L326.22-1.32Q323.00-3.61 320.36-6.74L320.36-6.74ZM350.20-64.94L350.20-64.94Q351.95-62.84 355.08-60.91L355.08-60.91L355.08-60.91Q358.20-58.98 360.01-58.94L360.01-58.94L360.01-58.94Q361.72-59.23 364.60-61.40L364.60-61.40L364.60-61.40Q367.48-63.57 370.12-66.43L370.12-66.43L370.12-66.43Q372.75-69.29 373.78-71.48L373.78-71.48L373.78-71.48Q372.46-77.15 367.65-79.61L367.65-79.61L367.65-79.61Q362.84-82.08 356.93-82.08L356.93-82.08L356.93-82.08Q353.86-73.19 350.20-64.94L350.20-64.94ZM348.88-10.35L348.88-10.35Q348.88-11.28 349.07-12.01L349.07-12.01L349.07-12.01Q349.27-12.74 350.39-15.77L350.39-15.77L350.39-15.77Q352.20-20.61 353.47-24.27L353.47-24.27L347.07-49.71L347.07-49.71Q348.58-51.51 351.12-53.15L351.12-53.15L351.12-53.15Q353.66-54.79 356.71-55.79L356.71-55.79L356.71-55.79Q359.77-56.79 362.70-56.79L362.70-56.79L362.70-56.79Q367.53-56.79 370.75-53.96L370.75-53.96L370.75-53.96Q370.51-52.49 370.12-48.73L370.12-48.73L370.12-48.73Q369.14-39.55 368.12-31.96L368.12-31.96L368.12-31.96Q367.09-24.37 365.82-19.14L365.82-19.14L364.89-15.33L372.22-18.60L376.07-12.50L376.07-12.50Q373.93-7.52 370.41-3.27L370.41-3.27L370.41-3.27Q366.89 0.98 362.65 0.98L362.65 0.98L362.65 0.98Q360.35 0.98 357.03-0.81L357.03-0.81L357.03-0.81Q353.71-2.59 351.29-5.22L351.29-5.22L351.29-5.22Q348.88-7.86 348.88-10.35L348.88-10.35Z"></path></g></g><style>text {
  font-size: 64px;
  font-family: Arial Black;
  dominant-baseline: central;
  text-anchor: middle;
}</style></svg>