<svg width="567.2299560546875px" height="178.39754638671874px" xmlns="http://www.w3.org/2000/svg" viewBox="-33.61497802734374 -14.198773193359372 567.2299560546875 178.39754638671874" style="background: rgba(0, 0, 0, 0);" preserveAspectRatio="xMidYMid"><defs><filter id="editing-offset"><feFlood flood-color="rgba(0%,0%,0%,0)" flood-opacity="0.5" result="c1"></feFlood><feFlood flood-color="#00ff00" flood-opacity="0.5" result="c2"></feFlood><feFlood flood-color="#0000ff" flood-opacity="0.5" result="c3"></feFlood><feComposite operator="in" in="c1" in2="SourceAlpha" result="text-c1"></feComposite><feComposite operator="in" in="c2" in2="SourceAlpha" result="text-c2"></feComposite><feComposite operator="in" in="c3" in2="SourceAlpha" result="text-c3"></feComposite><feOffset in="text-c1" dx="-10" dy="0" result="text1"></feOffset><feOffset in="text-c2" dx="10" dy="0" result="text2"></feOffset><feOffset in="text-c3" dx="0" dy="0" result="text3"></feOffset><feMerge><feMergeNode in="text1"></feMergeNode><feMergeNode in="text2"></feMergeNode><feMergeNode in="text3"></feMergeNode></feMerge></filter></defs><g filter="url(#editing-offset)"><g transform="translate(47.98438107967377, 112.34375)"><path d="M33.20-53L33.20-53L33.20-53Q36.80-53 39.60-52.20L39.60-52.20L39.60-52.20Q39.70-52.60 39.90-53.70L39.90-53.70L40.40-56.80L40.40-56.80Q40.80-58.80 41.40-62.10L41.40-62.10L43-70L62.90-72L51.80-14L51.80-14Q51.70-13.40 51.70-12.40L51.70-12.40L51.70-10.80L51.70-10.80Q51.70-8.60 52.80-6.95L52.80-6.95L52.80-6.95Q53.90-5.30 55.70-5.30L55.70-5.30L55.70-5.30Q53.70-0.60 47.60 1.40L47.60 1.40L47.60 1.40Q45.50 2 42.55 2L42.55 2L42.55 2Q39.60 2 36.90 0.45L36.90 0.45L36.90 0.45Q34.20-1.10 33.40-3.70L33.40-3.70L33.40-3.70Q31.80-1.10 28.60 0.45L28.60 0.45L28.60 0.45Q25.40 2 20.75 2L20.75 2L20.75 2Q16.10 2 12.25 0.80L12.25 0.80L12.25 0.80Q8.40-0.40 6-3L6-3L6-3Q1.60-8.10 1.60-19.70L1.60-19.70L1.60-19.70Q1.60-34.70 10.40-43.80L10.40-43.80L10.40-43.80Q19.20-53 33.20-53ZM32.50-47L32.50-47L32.50-47Q28.80-47 26.80-43L26.80-43L26.80-43Q24.80-39 22.75-29.10L22.75-29.10L22.75-29.10Q20.70-19.20 20.70-10.30L20.70-10.30L20.70-10.30Q20.70-4.20 24.30-4.20L24.30-4.20L24.30-4.20Q27.50-4.20 29.75-7.40L29.75-7.40L29.75-7.40Q32-10.60 32.90-15.90L32.90-15.90L38.30-45.20L38.30-45.20Q36.20-47 32.50-47ZM96.30-4.20L96.30-4.20L96.30-4.20Q91.50 2 79.60 2L79.60 2L79.60 2Q73.40 2 68.90-1.75L68.90-1.75L68.90-1.75Q64.40-5.50 64.40-10.90L64.40-10.90L64.40-10.90Q64.40-13.90 64.70-15.40L64.70-15.40L71.40-51L91.70-53L84.40-14.40L84.40-14.40Q84-12.20 84-10.90L84-10.90L84-10.90Q84-5.10 87.50-5.10L87.50-5.10L87.50-5.10Q91.40-5.10 94.20-10.40L94.20-10.40L94.20-10.40Q95.10-12.10 95.50-14.30L95.50-14.30L102.60-51L122.30-53L114.90-14L114.90-14Q114.60-12.50 114.60-10.90L114.60-10.90L114.60-10.90Q114.60-9.30 115.50-7.55L115.50-7.55L115.50-7.55Q116.40-5.80 119.30-5.40L119.30-5.40L119.30-5.40Q118.70-3 116.60-1.40L116.60-1.40L116.60-1.40Q112.20 2 107.45 2L107.45 2L107.45 2Q102.70 2 99.90 0.30L99.90 0.30L99.90 0.30Q97.10-1.40 96.30-4.20ZM126.40-4.80L126.40-4.80L138.80-70L159.10-72L156-56.70L156-56.70Q154.90-52 153.50-48.70L153.50-48.70L153.50-48.70Q155.70-51.50 160.50-52.60L160.50-52.60L160.50-52.60Q161.90-53 163.60-53L163.60-53L163.60-53Q172.90-53 178-47.35L178-47.35L178-47.35Q183.10-41.70 183.10-30.80L183.10-30.80L183.10-30.80Q183.10-16.60 175-7.70L175-7.70L175-7.70Q166.30 2 150.50 2L150.50 2L150.50 2Q139.60 2 131.40-1.60L131.40-1.60L131.40-1.60Q128.50-2.90 126.40-4.80ZM151.80-35L146.50-5.70L146.50-5.70Q148.60-3.90 151.20-3.90L151.20-3.90L151.20-3.90Q153.80-3.90 155.30-4.90L155.30-4.90L155.30-4.90Q156.80-5.90 157.90-7.90L157.90-7.90L157.90-7.90Q160.90-13.30 163.30-29.80L163.30-29.80L163.30-29.80Q164-34.50 164-39.20L164-39.20L164-39.20Q164-43.90 162.95-45.40L162.95-45.40L162.95-45.40Q161.90-46.90 159.90-46.90L159.90-46.90L159.90-46.90Q153.80-46.90 151.80-35L151.80-35ZM210.90 2L210.90 2L210.90 2Q188.90 2 188.90-18.70L188.90-18.70L188.90-18.70Q188.90-33.40 197-42.90L197-42.90L197-42.90Q205.60-53 220.50-53L220.50-53L220.50-53Q231.30-53 236.80-48L236.80-48L236.80-48Q242.30-43 242.30-32.50L242.30-32.50L242.30-32.50Q242.30-16.50 233.70-7.20L233.70-7.20L233.70-7.20Q225.30 2 210.90 2ZM213.50-41.50L213.50-41.50L213.50-41.50Q212.30-38.80 211.35-34.75L211.35-34.75L211.35-34.75Q210.40-30.70 209.20-24.30L209.20-24.30L209.20-24.30Q208-17.90 208-10L208-10L208-10Q208-7.40 208.85-5.70L208.85-5.70L208.85-5.70Q209.70-4 212-4L212-4L212-4Q214.30-4 215.75-5.10L215.75-5.10L215.75-5.10Q217.20-6.20 218.30-8.80L218.30-8.80L218.30-8.80Q220.30-13.40 221.90-21.95L221.90-21.95L221.90-21.95Q223.50-30.50 223.65-34.20L223.65-34.20L223.65-34.20Q223.80-37.90 223.80-40.65L223.80-40.65L223.80-40.65Q223.80-43.40 223-45.20L223-45.20L223-45.20Q222.20-47 219.95-47L219.95-47L219.95-47Q217.70-47 216.20-45.60L216.20-45.60L216.20-45.60Q214.70-44.20 213.50-41.50ZM251.90-16.20L251.90-16.20L251.90-16.20Q248.70-18.50 248.70-22.90L248.70-22.90L248.70-22.90Q248.70-25.30 249.90-27.25L249.90-27.25L249.90-27.25Q251.10-29.20 253.50-29.50L253.50-29.50L273.20-29.50L273.20-29.50Q276.50-29.50 277.50-31.50L277.50-31.50L277.50-31.50Q279.10-30.60 279.80-28.70L279.80-28.70L279.80-28.70Q280.50-26.80 280.50-24.80L280.50-24.80L280.50-24.80Q280.50-22.80 278.95-20.85L278.95-20.85L278.95-20.85Q277.40-18.90 275.10-18.70L275.10-18.70L256.80-18.70L256.80-18.70Q254.70-18.70 253.70-18.05L253.70-18.05L253.70-18.05Q252.70-17.40 251.90-16.20ZM336.50-41.60L336.50-41.60L336.50-41.60Q336.50-37.40 333-34.80L333-34.80L333-34.80Q329.50-32.20 323.80-32.20L323.80-32.20L323.80-32.20Q321.40-32.20 320-32.90L320-32.90L320-32.90Q321.10-35.50 321.45-38.75L321.45-38.75L321.45-38.75Q321.80-42 321.80-42.90L321.80-42.90L321.80-42.90Q321.80-47.10 318.90-47.10L318.90-47.10L318.90-47.10Q316.90-47.10 314.65-44.60L314.65-44.60L314.65-44.60Q312.40-42.10 310.50-38.20L310.50-38.20L310.50-38.20Q306.30-29.20 306.30-20.10L306.30-20.10L306.30-20.10Q306.30-15.10 308.20-12.85L308.20-12.85L308.20-12.85Q310.10-10.60 314.30-10.60L314.30-10.60L314.30-10.60Q320.10-10.60 324.70-15.40L324.70-15.40L324.70-15.40Q326-16.90 326.70-18.60L326.70-18.60L326.70-18.60Q330.50-16.60 330.50-11.10L330.50-11.10L330.50-11.10Q330.50-5.50 324.30-1.80L324.30-1.80L324.30-1.80Q317.90 2 307.70 2L307.70 2L307.70 2Q287.40 2 287.40-19.50L287.40-19.50L287.40-19.50Q287.40-35.20 296.30-44.20L296.30-44.20L296.30-44.20Q304.90-53 320.70-53L320.70-53L320.70-53Q336.50-53 336.50-41.60ZM363.10-5.50L363.10-5.50L363.10-5.50Q360 2 350.10 2L350.10 2L350.10 2Q345.10 2 341.90-1.50L341.90-1.50L341.90-1.50Q339.30-4.40 339.30-7.70L339.30-7.70L339.30-7.70Q339.30-15.20 342.80-31.60L342.80-31.60L350.10-70L370.40-72L360.70-21.40L360.70-21.40Q359-14 359-11.40L359-11.40L359-11.40Q359-5.70 363.10-5.50ZM395.60-5.50L395.60-5.50L395.60-5.50Q392.50 2 382.60 2L382.60 2L382.60 2Q377.50 2 374.30-1.50L374.30-1.50L374.30-1.50Q371.60-4.60 371.60-7.70L371.60-7.70L371.60-7.70Q371.60-15.80 375.30-31.60L375.30-31.60L379-51L399.30-53L393.20-21.40L393.20-21.40Q391.50-14 391.50-11.40L391.50-11.40L391.50-11.40Q391.50-5.70 395.60-5.50ZM380.80-64.90L380.80-64.90L380.80-64.90Q380.80-68.80 384.05-70.90L384.05-70.90L384.05-70.90Q387.30-73 392-73L392-73L392-73Q396.70-73 399.55-70.90L399.55-70.90L399.55-70.90Q402.40-68.80 402.40-64.90L402.40-64.90L402.40-64.90Q402.40-61 399.25-59L399.25-59L399.25-59Q396.10-57 391.40-57L391.40-57L391.40-57Q386.70-57 383.75-59L383.75-59L383.75-59Q380.80-61 380.80-64.90Z"></path></g></g><style>text {
  font-size: 64px;
  font-family: Arial Black;
  dominant-baseline: central;
  text-anchor: middle;
}</style></svg>